<svg width="13" height="23" fill="none" ><path fill-rule="evenodd" clip-rule="evenodd" d="M6.5 11.585c3.194 0 5.792-2.538 5.792-5.657 0-3.122-2.597-5.66-5.792-5.66C3.306.268.707 2.806.707 5.928c0 3.12 2.599 5.657 5.793 5.657zm0-8c1.322 0 2.398 1.05 2.398 2.343 0 1.29-1.076 2.342-2.398 2.342S4.102 7.219 4.102 5.928c0-1.293 1.076-2.344 2.398-2.344zm6.24 8.97c.498.774.26 1.798-.533 2.286a10.985 10.985 0 0 1-3.364 1.36l3.238 3.165c.319.31.498.732.498 1.172 0 .44-.18.862-.498 1.172-.318.311-.75.486-1.2.486-.45 0-.88-.175-1.199-.486L6.5 18.601l-3.18 3.11a1.724 1.724 0 0 1-1.64.429 1.678 1.678 0 0 1-1.2-1.173 1.632 1.632 0 0 1 .439-1.601L4.156 16.2a10.996 10.996 0 0 1-3.363-1.36 1.636 1.636 0 0 1-.532-2.286c.24-.373.62-.637 1.06-.735.438-.098.899-.021 1.28.213a7.503 7.503 0 0 0 7.798 0 1.73 1.73 0 0 1 1.28-.213c.44.098.82.362 1.06.735z" fill="#000"/></svg>