<svg width="22" height="18" fill="none" ><path opacity=".9" fill-rule="evenodd" clip-rule="evenodd" d="m10.682 4.979.048.767-.795-.094C7.042 5.292 4.515 4.07 2.37 2.02l-1.05-1.017-.27.751C.477 3.43.842 5.198 2.035 6.388c.636.657.492.75-.604.36-.382-.126-.716-.22-.747-.173-.112.11.27 1.534.572 2.098.413.782 1.256 1.55 2.178 2.003l.779.36-.922.016c-.89 0-.922.016-.827.344.318 1.018 1.574 2.098 2.972 2.567l.986.329-.858.5a9.122 9.122 0 0 1-4.26 1.16c-.716.015-1.304.077-1.304.124 0 .157 1.94 1.033 3.068 1.378 3.386 1.017 7.408.579 10.428-1.159 2.146-1.236 4.292-3.694 5.293-6.073.54-1.267 1.081-3.584 1.081-4.695 0-.72.048-.814.938-1.675.525-.501 1.018-1.049 1.113-1.205.159-.298.143-.298-.668-.032-1.35.47-1.542.407-.874-.297.493-.501 1.08-1.409 1.08-1.675 0-.047-.238.031-.508.172-.286.157-.922.392-1.399.532l-.858.266-.779-.516c-.43-.282-1.033-.595-1.351-.689-.81-.219-2.05-.188-2.782.063-1.987.704-3.243 2.52-3.1 4.508z" fill="#000"/></svg>