<svg width="24" height="15" fill="none"><path d="M23.058.869h-3.894a.876.876 0 0 0-.775.475s-1.553 2.931-2.052 3.919c-1.343 2.656-2.212 1.822-2.212.59V1.601c0-.74-.585-1.34-1.307-1.34H9.89a2.324 2.324 0 0 0-2.072.986s1.487-.246 1.487 1.807c0 .509.025 1.973.049 3.202a.885.885 0 0 1-.546.844.85.85 0 0 1-.961-.233 26.325 26.325 0 0 1-2.957-5.51.82.82 0 0 0-.746-.49H.605a.597.597 0 0 0-.496.264.629.629 0 0 0-.071.568C1.112 4.72 5.74 14.21 11.023 14.21h2.224a.89.89 0 0 0 .878-.9v-1.376c0-.352.205-.671.52-.811a.848.848 0 0 1 .934.167l2.662 2.562c.239.23.555.358.883.358h3.495c1.685 0 1.685-1.198.766-2.126-.647-.652-2.98-3.173-2.98-3.173a1.258 1.258 0 0 1-.093-1.605c.754-1.018 1.988-2.683 2.511-3.396.715-.975 2.01-3.041.235-3.041z" fill="#000"/></svg>